<?xml version="1.0" encoding="UTF-8"?>
<svg id="Layer_1" data-name="Layer 1" xmlns="http://www.w3.org/2000/svg" xmlns:xlink="http://www.w3.org/1999/xlink" viewBox="0 0 722.31 145.91">
  <defs>
    <style>
      .cls-1 {
        fill: url(#linear-gradient);
      }

      .cls-1, .cls-2 {
        stroke-width: 0px;
      }

      .cls-2 {
        fill: #fff;
      }
    </style>
    <linearGradient id="linear-gradient" x1="36.51" y1="149.85" x2="236.3" y2="49.18" gradientUnits="userSpaceOnUse">
      <stop offset="0" stop-color="#ffb93f"/>
      <stop offset="1" stop-color="#8a00ff"/>
    </linearGradient>
  </defs>
  <g>
    <path class="cls-2" d="M549.27,140.75c-3.96,0-7.52-.68-10.7-2.05-3.18-1.36-5.79-3.32-7.85-5.86-2.05-2.54-3.39-5.56-4-9.05l8.34-1.26c.84,3.37,2.6,5.99,5.28,7.87,2.68,1.88,5.8,2.81,9.38,2.81,2.22,0,4.26-.35,6.12-1.05,1.86-.7,3.36-1.71,4.5-3.02,1.14-1.31,1.7-2.89,1.7-4.73,0-1-.17-1.88-.52-2.64-.34-.77-.82-1.43-1.42-2.01-.6-.57-1.33-1.07-2.18-1.49-.86-.42-1.79-.78-2.81-1.09l-14.12-4.17c-1.38-.41-2.78-.94-4.21-1.59-1.43-.65-2.74-1.51-3.92-2.56-1.19-1.06-2.15-2.37-2.89-3.94-.74-1.57-1.11-3.48-1.11-5.72,0-3.39.87-6.27,2.62-8.63,1.75-2.36,4.11-4.15,7.1-5.36,2.99-1.21,6.33-1.82,10.03-1.82,3.73.05,7.06.71,10.01,1.99,2.95,1.28,5.4,3.11,7.35,5.49,1.95,2.39,3.3,5.28,4.04,8.67l-8.57,1.45c-.38-2.07-1.2-3.85-2.45-5.34-1.25-1.49-2.78-2.64-4.59-3.44-1.81-.8-3.78-1.22-5.89-1.24-2.04-.05-3.91.26-5.61.92-1.7.66-3.05,1.59-4.06,2.79-1.01,1.2-1.51,2.58-1.51,4.13s.45,2.77,1.34,3.71c.89.94,2,1.69,3.31,2.24,1.31.55,2.62,1,3.92,1.36l10.18,2.87c1.28.36,2.72.84,4.34,1.43,1.62.6,3.19,1.44,4.71,2.51,1.52,1.07,2.77,2.49,3.77,4.27,1,1.77,1.49,4,1.49,6.68s-.56,5.22-1.68,7.33c-1.12,2.11-2.66,3.87-4.61,5.28-1.95,1.42-4.2,2.48-6.76,3.2-2.55.71-5.24,1.07-8.08,1.07Z"/>
    <path class="cls-2" d="M576.03,139.6v-55.11h8v23.77h27.56v-23.77h8.04v55.11h-8.04v-23.81h-27.56v23.81h-8Z"/>
    <path class="cls-2" d="M650.81,140.75c-5.51,0-10.21-1.21-14.08-3.62-3.88-2.41-6.85-5.77-8.9-10.09-2.05-4.31-3.08-9.31-3.08-15s1.03-10.69,3.08-15c2.05-4.31,5.02-7.67,8.9-10.08,3.88-2.41,8.57-3.62,14.08-3.62s10.17,1.21,14.07,3.62c3.89,2.41,6.86,5.77,8.9,10.08,2.04,4.31,3.06,9.31,3.06,15s-1.02,10.69-3.06,15c-2.04,4.31-5.01,7.67-8.9,10.09-3.89,2.41-8.58,3.62-14.07,3.62ZM650.81,133.13c3.9.05,7.15-.81,9.74-2.58,2.59-1.77,4.54-4.25,5.84-7.43,1.3-3.18,1.95-6.87,1.95-11.08s-.65-7.89-1.95-11.04c-1.3-3.15-3.25-5.61-5.84-7.37-2.59-1.76-5.84-2.65-9.74-2.68-3.9-.05-7.15.8-9.74,2.56-2.59,1.76-4.54,4.24-5.84,7.42-1.3,3.19-1.97,6.89-1.99,11.1-.03,4.21.61,7.89,1.91,11.04,1.3,3.15,3.26,5.61,5.88,7.37,2.62,1.76,5.87,2.65,9.78,2.68Z"/>
    <path class="cls-2" d="M681.97,139.6v-55.11h22.28c.54,0,1.2.02,1.99.06.79.04,1.54.12,2.26.25,3.06.49,5.62,1.53,7.67,3.14,2.05,1.61,3.59,3.64,4.61,6.09,1.02,2.45,1.53,5.15,1.53,8.11s-.51,5.7-1.53,8.15c-1.02,2.45-2.56,4.48-4.61,6.09-2.05,1.61-4.61,2.65-7.67,3.14-.71.1-1.47.18-2.28.23-.8.05-1.46.08-1.97.08h-14.28v19.79h-8ZM689.97,112.23h13.97c.51,0,1.08-.03,1.7-.08.62-.05,1.22-.14,1.78-.27,1.63-.38,2.95-1.09,3.94-2.12,1-1.03,1.71-2.23,2.14-3.58.43-1.35.65-2.7.65-4.06s-.22-2.7-.65-4.04c-.43-1.34-1.15-2.53-2.14-3.56-1-1.03-2.31-1.74-3.94-2.12-.56-.15-1.15-.25-1.78-.31-.63-.05-1.19-.08-1.7-.08h-13.97v20.21Z"/>
  </g>
  <g>
    <path class="cls-2" d="M517.7,84.32c-.67.63-1.41.48-2.11.48-4.67,0-9.34.15-14-.06-7.83-.36-15.65-.19-23.48-.23-15.66-.07-31.32-.05-46.98-.07-.93,0-1.88-.09-2.94.17-.07.48-.2.93-.2,1.38,0,5.37,0,10.75,0,16.12,0,1.67.29,3.28.85,4.87,1.84,5.21,5.63,8.03,10.92,9.04,2.02.38,4.07.47,6.13.47,18.98-.02,37.97-.01,56.95-.01.63,0,1.27-.01,1.9,0,1.37.04,1.6.2,1.6,1.47.02,6.8.01,13.59,0,20.39,0,.24-.01.48-.06.71-.1.53-.44.83-.97.85-.71.03-1.42.04-2.13.04-10.6,0-21.2,0-31.8,0-9.17,0-18.35-.01-27.52,0-4.21,0-8.36-.41-12.43-1.46-6.16-1.58-11.67-4.47-16.22-8.94-4.79-4.69-7.96-10.38-9.58-16.9-.92-3.69-1.43-7.43-1.42-11.24.01-19.44-.07-38.88.04-58.32.05-9.13,2.89-17.4,8.77-24.49,3.66-4.41,8.28-7.54,13.58-9.66,4.88-1.96,9.97-2.97,15.25-2.97,12.81,0,25.63,0,38.44,0,6.1,0,11.92,1.31,17.42,3.92,6.71,3.18,11.8,8.12,15.35,14.64,2.06,3.78,3.39,7.83,4.12,12.05.37,2.17.57,4.39.62,6.59.1,4.66.05,9.32.05,13.99,0,8.22,0,16.44,0,24.65,0,.86.11,1.73-.15,2.49ZM494.23,61.09c.05-.92.11-1.54.12-2.16,0-3.55,0-7.11,0-10.66.01-2.21-.02-4.42-.38-6.61-.9-5.44-3.81-9.27-9.02-11.21-1.93-.72-3.96-1.02-6.04-1.01-11.86.02-23.72.03-35.57,0-1.6,0-3.16.18-4.69.56-4.02,1.02-7.12,3.27-9.04,7.04-1.14,2.23-1.63,4.58-1.63,7.08.02,10.58,0,21.17,0,31.75,0,.39-.01.79.02,1.18.15,1.73,1.75,2.59,3.26,1.73.47-.27.87-.68,1.28-1.05,3.73-3.41,7.46-6.82,11.19-10.24,1.92-1.76,3.88-3.49,5.75-5.3.86-.83,1.79-1.24,2.98-1.12.55.05,1.11,0,1.66,0,12.41,0,24.82,0,37.23,0h2.86Z"/>
    <path class="cls-2" d="M81.41,29.45h-2.82c-24.91,0-49.83,0-74.74,0-.71,0-1.42.02-2.14,0-1.33-.05-1.6-.33-1.69-1.72-.03-.47-.02-.95-.02-1.42,0-5.61,0-11.22,0-16.83,0-1.1-.09-2.21.54-3.31.34-.05.72-.15,1.11-.16.71-.03,1.42-.01,2.14-.01,35.51,0,71.03,0,106.54,0,.71,0,1.42-.02,2.14.01,1.12.05,1.33.27,1.39,1.45.02.47.01.95.01,1.42,0,6.01,0,12.01,0,18.02,0,.32-.02.63,0,.95.06.92-.26,1.67-.91,2.34-1.1,1.13-2.12,2.34-3.2,3.49-3.02,3.23-6.06,6.45-9.09,9.68-5.14,5.48-10.27,10.96-15.4,16.44-4.16,4.45-8.3,8.9-12.45,13.35-6.63,7.11-13.26,14.21-19.89,21.32-3.88,4.16-7.75,8.33-11.63,12.5-2.53,2.72-5.08,5.42-7.61,8.14-.31.33-.75.6-.68,1.3.74.03,1.51.08,2.28.08,18.59,0,37.17,0,55.76,0,6.8,0,13.6,0,20.41,0,2.38,0,2.4.02,2.41,2.34.01,6.32.01,12.64,0,18.97,0,2.06-.1,2.13-2.14,2.15-1.9.02-3.8,0-5.69,0-22.94,0-45.87,0-68.81,0-.63,0-1.27,0-1.9,0-2.01-.03-2.08-.09-2.09-2.2-.02-4.9,0-9.8,0-14.7,0-.63,0-1.27-.07-1.89-.11-.84-.7-1.43-1.53-1.58-1.06-.19-2.03-.09-2.82.8-.79.88-1.65,1.7-2.46,2.56-4.83,5.11-9.67,10.22-14.5,15.33-.27.29-.56.56-.83.85-.51.55-1.1.84-1.88.83-2.53-.03-5.06,0-7.59-.02-1.06-.01-1.4-.36-1.49-1.42-.05-.55-.03-1.11-.03-1.66,0-5.77,0-11.54,0-17.31,0-.47,0-.95.02-1.42.04-.98.35-1.83,1.06-2.55,1.05-1.07,2.01-2.23,3.04-3.32,3.68-3.92,7.38-7.82,11.05-11.74,4.76-5.07,9.52-10.15,14.27-15.22,4.43-4.73,8.85-9.47,13.28-14.2,4.75-5.08,9.51-10.15,14.26-15.23,4.43-4.73,8.86-9.46,13.28-14.2,3.5-3.76,7-7.52,10.49-11.29.2-.22.34-.49.65-.94Z"/>
    <path class="cls-2" d="M307.87,29.45c-.08.82-.16,1.36-.17,1.9-.02,1.98,0,3.95,0,5.93,0,33.03,0,66.07,0,99.1,0,.87,0,1.74-.05,2.61-.03.52-.35.88-.9.93-.39.04-.79.04-1.18.04-6.49,0-12.97,0-19.46,0-2.07,0-2.13-.09-2.16-2.13,0-.47,0-.95,0-1.42,0-42.28,0-84.56,0-126.84,0-.87,0-1.74.05-2.61.03-.53.34-.88.89-.93.39-.04.79-.04,1.18-.04,6.49,0,12.97,0,19.46,0,2.08,0,2.16.08,2.17,2.11.02,3.95,0,7.9,0,11.85,0,.63-.02,1.27.02,1.9.1,1.47,1.18,2.23,2.62,1.9.72-.17,1.28-.56,1.82-1.06,1.33-1.23,2.7-2.43,4.04-3.67,2.91-2.68,5.8-5.37,8.71-8.05,1.51-1.39,3.06-2.75,4.56-4.15.61-.57,1.28-.87,2.13-.84,1.03.04,2.06,0,3.08,0,8.78,0,17.56-.1,26.34.05,8.71.14,16.65,2.77,23.45,8.32,5.88,4.8,9.64,11.01,11.6,18.32.94,3.52,1.49,7.1,1.48,10.76,0,1.03.03,2.05.03,3.08,0,30.03,0,60.06,0,90.09,0,.79,0,1.58-.04,2.37-.03.54-.34.87-.88.93-.39.04-.79.05-1.18.05-6.41,0-12.81.01-19.22,0-2.12,0-2.14-.05-2.17-2.09-.01-.63,0-1.26,0-1.9,0-29.79,0-59.59,0-89.38,0-1.74-.1-3.46-.37-5.19-.85-5.62-4.94-10.45-11.27-11.57-1.41-.25-2.81-.38-4.24-.38-15.9,0-31.8,0-47.7,0h-2.61Z"/>
    <g>
      <path class="cls-2" d="M239,92.44c-.03.05-.07.1-.11.15-5.97,7.57-14.19,10.98-22.87,14.27.31,2.04-2.34,3.4-4.06,2.5-.39-.2-.78-.37-1.19-.52-8.52,3.16-17.5,6.09-26.61,5.39-2.59-.2-3.22-3.34-1.87-4.71-1.74-.29-3.48-.58-5.24-.83-1.44-.21-2.01-1.25-1.93-2.35-.57.63-1.22,1.18-1.94,1.61-1.19.71-3,.31-3.66-.96-1.55-3-1.4-6.31.37-9.17-1.69-2.11-2.82-4.76-3.55-7.49-.93-.64-1.75-1.39-2.52-2.18-1.25.25-2.73-.22-3.34-1.71-.21-.51-.4-1.03-.58-1.55-1.26-1.12-2.36-2.38-3.18-3.97-.6-1.16-.16-2.62.74-3.45-6.69-5.73-1.7-16.6,1.66-23.46.51-1.67,1.2-3.28,2.16-4.74,1.91-8.43,4.51-16.89,8.71-24.36.19-.33.41-.59.66-.79l-19.09-19.09c-18.86,14.33-31.07,37-31.07,62.46,0,43.24,35.18,78.42,78.42,78.42,25.46,0,48.13-12.2,62.47-31.07l-22.4-22.4Z"/>
      <path class="cls-1" d="M198.93,136.02c-37.5,0-68.01-30.51-68.01-68.01S161.43,0,198.93,0s68.01,30.51,68.01,68.01-30.51,68.01-68.01,68.01ZM198.93,31.45c-20.16,0-36.56,16.4-36.56,36.56s16.4,36.56,36.56,36.56,36.56-16.4,36.56-36.56-16.4-36.56-36.56-36.56Z"/>
      <path class="cls-2" d="M254.31,122.86c14.19-14.19,22.97-33.78,22.97-55.38s-8.79-41.19-22.97-55.38l-55.38,55.38,55.38,55.38Z"/>
    </g>
  </g>
</svg>